# xmcd CD database file
#
# Track frame offsets:
#	150
#	18890
#	40485
#	57016
#	73884
#	92356
#	110861
#	126593
#	150876
#	168432
#	185279
#	203725
#	222794
#	241449
#
# Disc length: 3518 seconds
#
# Revision: 0
# Processed by: cddbd v1.5.1PL0 Copyright (c) Steve Scherf et al.
# Submitted via: CDex 1.51
#
DISCID=be0dbc0e
DTITLE=Yarei - Viento Y Sal
DYEAR=2003
DGENRE=New Age
TTITLE0=Tu Voluntad Serena
TTITLE1=Todavía Apareces en Mis Sueños
TTITLE2=Dulce
TTITLE3=Bulerías Del Amor Ciego
TTITLE4=Luz Entre Las Sombras
TTITLE5=Memoria De Un Beso
TTITLE6=Sara
TTITLE7=Despetar En Granada
TTITLE8=Le Diosa De La Bahía
TTITLE9=Llamame
TTITLE10=Nadie Mas Que El Tiempo
TTITLE11=Creo en Ti
TTITLE12=Tu Voluntad Serena
TTITLE13=Todavía Apareces en Mis Sueños
EXTD=YEAR: 2003
EXTT0=
EXTT1=
EXTT2=
EXTT3=
EXTT4=
EXTT5=
EXTT6=
EXTT7=
EXTT8=
EXTT9=
EXTT10=
EXTT11=
EXTT12=
EXTT13=
PLAYORDER=
